PathFileType	3	(X/Y/Z)	RCH0000002 BBF 09.c3d
DataRate	CameraRate	NumFrames	NumMarkers	Units	OrigDataRate	OrigDataStartFrame	OrigNumFrames
100.0	100.0	8	23	mm	100.0	290	352
Frame#	Time	T2			T10			MAN			LASI			RASI			LPSI			RPSI			LPAT			LKNE			LANK			LMED			LHEE			LTOE			RPAT			RKNE			RANK			RMED			RHEE			RTOE			RTHI			LTHI			RTIB			LTIB			
		X1	Y1	Z1	X2	Y2	Z2	X3	Y3	Z3	X4	Y4	Z4	X5	Y5	Z5	X6	Y6	Z6	X7	Y7	Z7	X8	Y8	Z8	X9	Y9	Z9	X10	Y10	Z10	X11	Y11	Z11	X12	Y12	Z12	X13	Y13	Z13	X14	Y14	Z14	X15	Y15	Z15	X16	Y16	Z16	X17	Y17	Z17	X18	Y18	Z18	X19	Y19	Z19	X20	Y20	Z20	X21	Y21	Z21	X22	Y22	Z22	X23	Y23	Z23	

290	2.890	-77.15124	45.46400	985.67885	-72.31029	54.75234	795.25926	50.73076	67.45188	949.68742	41.52201	108.66930	641.98048	21.28274	-64.22066	674.90363	-75.89444	79.98769	694.57868	-82.11900	11.23523	711.88117	156.87015	67.00081	424.67688	124.45783	122.36119	371.74591	56.13081	137.06729	113.76554	65.99329	66.19692	122.71435	22.71980	92.38332	142.30997	106.21650	104.63964	102.87993	-39.15694	-13.58939	378.85787	-87.34256	-70.57680	356.40245	-170.50131	-66.74310	90.66249	-186.95951	-1.58672	107.64880	-215.22093	-45.03107	130.65827	-133.21582	-23.52777	75.66255	-39.22257	-137.82351	458.81115	68.95603	195.70224	481.65079	-123.42024	-135.90932	240.10221	94.14343	191.08705	269.15600	
291	2.900	-68.31363	47.08322	984.16189	-64.17488	55.44148	793.44927	59.28431	68.98297	947.10601	51.13132	107.69934	639.88014	29.36802	-64.93353	673.88315	-66.85448	80.43521	692.18055	-73.62844	11.76743	710.01728	165.58920	63.57666	422.67266	134.92692	119.98282	369.58744	76.33592	136.87008	108.87299	84.57190	65.82822	117.76914	41.00905	92.69830	136.09034	126.22060	103.70397	99.55155	-34.53885	-14.61447	377.67746	-83.27456	-71.46103	356.18884	-169.95404	-66.81206	91.15938	-185.76498	-1.65513	108.44893	-214.04675	-44.92045	131.76722	-132.59383	-23.74450	75.67454	-33.94583	-138.57143	458.11308	79.96521	193.59615	479.54316	-121.58077	-136.49919	240.02090	109.63555	189.66789	265.83390	
292	2.910	-59.33820	48.79295	982.50194	-55.73523	56.02243	791.53052	68.00315	70.64264	944.50630	60.85054	106.77469	637.67153	37.81965	-65.64300	672.68271	-57.61903	80.72465	689.75227	-64.84268	12.11510	708.06814	173.77471	60.07072	419.93367	144.68780	117.57542	366.83166	94.98768	136.52131	103.81895	101.64649	65.34729	112.62611	57.88546	92.84691	129.78382	144.62647	102.67856	95.94867	-29.24979	-15.57135	376.32721	-78.50502	-72.25502	355.79142	-169.14328	-67.00358	91.69885	-184.35315	-1.85690	109.31116	-212.55205	-44.97843	132.99574	-131.80388	-24.01962	75.65389	-28.08701	-139.27115	457.25231	90.65820	191.41534	477.04432	-119.10412	-137.08014	239.88735	124.05111	188.14638	262.13893	
293	2.920	-50.22387	50.56627	980.73910	-46.96489	56.45817	789.55067	76.89488	72.41147	941.95085	70.66425	105.92012	635.42195	46.65455	-66.34065	671.30458	-48.19429	80.84072	687.36413	-55.75453	12.25585	706.07508	181.49073	56.61430	416.57625	153.75891	115.22728	363.58136	111.76495	136.02015	98.71975	116.95238	64.75944	107.43706	73.07686	92.81185	123.56302	161.14751	101.58561	92.17027	-23.20683	-16.45421	374.79263	-72.96360	-72.94316	355.18626	-167.98546	-67.32942	92.28889	-182.64905	-2.20613	110.24752	-210.64299	-45.22607	134.35937	-130.79080	-24.35453	75.59164	-21.60784	-139.91374	456.21838	101.00125	189.24289	474.23395	-115.88683	-137.64860	239.69605	137.22460	186.56979	258.17175	
294	2.930	-40.97468	52.37387	978.91795	-37.84848	56.71321	787.56138	85.96037	74.26698	939.50079	80.54686	105.16249	633.20689	55.88206	-67.01304	669.75336	-38.59573	80.76675	685.09200	-46.36551	12.16752	704.08295	188.80099	53.35015	412.75050	162.16652	113.03717	359.97217	126.40735	135.40346	93.70316	130.27933	64.10287	102.36168	86.36361	92.61550	117.60471	175.55863	100.47670	88.32944	-16.34191	-17.24572	373.06278	-66.59169	-73.50468	354.35149	-166.39535	-67.78831	92.93563	-180.57226	-2.70428	111.26656	-208.22173	-45.66809	135.86876	-129.49935	-24.74238	75.47830	-14.47072	-140.48262	454.99956	110.95784	187.17220	471.21804	-111.83868	-138.19342	239.43997	149.02492	185.00945	254.05560	
295	2.940	-31.60018	54.18462	977.08691	-28.38344	56.75525	785.61735	95.19295	76.18408	937.21440	90.46269	104.53031	631.10758	65.50253	-67.64131	668.03725	-28.84813	80.48590	683.01441	-36.68642	11.82990	702.13903	195.76237	50.42671	408.63241	169.94032	111.11028	356.16516	138.74674	134.74380	88.90175	141.49594	63.44686	97.55804	97.60546	92.32073	112.07901	187.72109	99.42818	84.54686	-8.60623	-17.91796	371.13274	-59.34578	-73.91466	353.26992	-164.28847	-68.36549	93.64339	-178.03961	-3.33909	112.37305	-205.18940	-46.29150	137.52882	-127.87537	-25.16828	75.30552	-6.64077	-140.95393	453.58491	120.48694	185.30329	468.12380	-106.88692	-138.69578	239.11175	159.37106	183.55837	249.92889	
296	2.950	-22.11539	55.96598	975.29704	-18.58102	56.55727	783.77489	104.57813	78.13542	935.14556	100.36720	104.05296	629.20713	75.50592	-68.20123	666.16932	-18.98494	79.98345	681.20849	-26.73759	11.22743	700.29130	202.41911	47.99081	404.41224	177.10906	109.55271	352.33574	148.73111	134.14175	84.44404	150.56729	62.88518	93.17225	106.76147	92.02551	107.13787	197.59987	98.53228	80.94219	0.02716	-18.43533	369.00598	-51.19980	-74.14591	351.93200	-161.58361	-69.03436	94.41530	-174.96826	-4.08552	113.56827	-201.44941	-47.06652	139.33852	-125.86626	-25.61121	75.06838	1.91088	-141.29833	451.96742	129.54286	183.73766	465.09134	-100.97892	-139.13044	238.70545	168.24409	182.32532	245.93489	
297	2.960	-12.54068	57.68445	973.60042	-8.46649	56.09983	782.08979	114.09374	80.09186	933.34234	110.20935	103.75944	627.58558	85.87069	-68.66393	664.16870	-9.04671	79.24977	679.74511	-16.54864	10.35227	698.58643	208.79874	46.17877	400.28022	183.69697	108.46489	348.65982	156.43503	133.71293	80.44409	157.56217	62.52482	89.32800	113.89839	91.85119	102.90358	205.27000	97.88519	77.62445	9.56257	-18.75893	366.69645	-42.14627	-74.17169	350.33854	-158.20525	-69.76009	95.25450	-171.27883	-4.90845	114.85096	-196.91148	-47.94987	141.29163	-123.42090	-26.04723	74.76799	11.20313	-141.48388	450.14779	138.07699	182.57189	462.26293	-94.08322	-139.46826	238.21895	175.69200	181.42555	242.20925	
